<mxfile host="app.diagrams.net" agent="Mozilla/5.0 (Windows NT 10.0; Win64; x64) AppleWebKit/537.36 (KHTML, like Gecko) Chrome/134.0.0.0 Safari/537.36 Edg/134.0.0.0" version="26.1.1">
  <diagram name="Page-1" id="2YBvvXClWsGukQMizWep">
    <mxGraphModel grid="1" page="1" gridSize="10" guides="1" tooltips="1" connect="1" arrows="1" fold="1" pageScale="1" pageWidth="850" pageHeight="1100" math="0" shadow="0">
      <root>
        <mxCell id="0" />
        <mxCell id="1" parent="0" />
        <mxCell id="aM9ryv3xv72pqoxQDRHE-5" value="&lt;b&gt;:AttendanceController&lt;/b&gt;" style="shape=umlLifeline;perimeter=lifelinePerimeter;whiteSpace=wrap;html=1;container=0;dropTarget=0;collapsible=0;recursiveResize=0;outlineConnect=0;portConstraint=eastwest;newEdgeStyle={&quot;edgeStyle&quot;:&quot;elbowEdgeStyle&quot;,&quot;elbow&quot;:&quot;vertical&quot;,&quot;curved&quot;:0,&quot;rounded&quot;:0};" vertex="1" parent="1">
          <mxGeometry x="210" y="40" width="130" height="430" as="geometry" />
        </mxCell>
        <mxCell id="aM9ryv3xv72pqoxQDRHE-6" value="" style="html=1;points=[];perimeter=orthogonalPerimeter;outlineConnect=0;targetShapes=umlLifeline;portConstraint=eastwest;newEdgeStyle={&quot;edgeStyle&quot;:&quot;elbowEdgeStyle&quot;,&quot;elbow&quot;:&quot;vertical&quot;,&quot;curved&quot;:0,&quot;rounded&quot;:0};" vertex="1" parent="aM9ryv3xv72pqoxQDRHE-5">
          <mxGeometry x="60" y="160" width="10" height="220" as="geometry" />
        </mxCell>
        <mxCell id="aM9ryv3xv72pqoxQDRHE-7" value="1.OpenQRScanner()" style="html=1;verticalAlign=bottom;endArrow=block;elbow=vertical;rounded=0;exitX=0.105;exitY=0.68;exitDx=0;exitDy=0;exitPerimeter=0;fontStyle=1" edge="1" parent="1" source="i8TA8cNmWOimtNWkmogZ-5" target="aM9ryv3xv72pqoxQDRHE-2">
          <mxGeometry relative="1" as="geometry">
            <mxPoint x="25" y="150" as="sourcePoint" />
            <mxPoint x="220" y="150" as="targetPoint" />
          </mxGeometry>
        </mxCell>
        <mxCell id="aM9ryv3xv72pqoxQDRHE-8" value="&lt;b&gt;5. ConfirmQRSuccess()&lt;/b&gt;" style="html=1;verticalAlign=bottom;endArrow=open;dashed=1;endSize=8;edgeStyle=elbowEdgeStyle;elbow=vertical;curved=0;rounded=0;" edge="1" parent="1" target="aM9ryv3xv72pqoxQDRHE-2">
          <mxGeometry relative="1" as="geometry">
            <mxPoint x="85" y="288" as="targetPoint" />
            <Array as="points">
              <mxPoint x="190" y="288" />
            </Array>
            <mxPoint x="270" y="288" as="sourcePoint" />
          </mxGeometry>
        </mxCell>
        <mxCell id="i8TA8cNmWOimtNWkmogZ-1" value="&lt;b&gt;Sinh viên&lt;/b&gt;" style="shape=umlActor;verticalLabelPosition=bottom;verticalAlign=top;html=1;" vertex="1" parent="1">
          <mxGeometry x="-190" y="18" width="30" height="60" as="geometry" />
        </mxCell>
        <mxCell id="i8TA8cNmWOimtNWkmogZ-2" value="&lt;b&gt;:AttendanceInfo&lt;/b&gt;" style="shape=umlLifeline;perimeter=lifelinePerimeter;whiteSpace=wrap;html=1;container=0;dropTarget=0;collapsible=0;recursiveResize=0;outlineConnect=0;portConstraint=eastwest;newEdgeStyle={&quot;edgeStyle&quot;:&quot;elbowEdgeStyle&quot;,&quot;elbow&quot;:&quot;vertical&quot;,&quot;curved&quot;:0,&quot;rounded&quot;:0};" vertex="1" parent="1">
          <mxGeometry x="450" y="40" width="130" height="420" as="geometry" />
        </mxCell>
        <mxCell id="i8TA8cNmWOimtNWkmogZ-3" value="" style="html=1;points=[];perimeter=orthogonalPerimeter;outlineConnect=0;targetShapes=umlLifeline;portConstraint=eastwest;newEdgeStyle={&quot;edgeStyle&quot;:&quot;elbowEdgeStyle&quot;,&quot;elbow&quot;:&quot;vertical&quot;,&quot;curved&quot;:0,&quot;rounded&quot;:0};" vertex="1" parent="i8TA8cNmWOimtNWkmogZ-2">
          <mxGeometry x="60" y="220" width="10" height="20" as="geometry" />
        </mxCell>
        <mxCell id="i8TA8cNmWOimtNWkmogZ-5" value="" style="line;strokeWidth=1;direction=south;html=1;dashed=1;" vertex="1" parent="1">
          <mxGeometry x="-180" y="108" width="10" height="362" as="geometry" />
        </mxCell>
        <mxCell id="i8TA8cNmWOimtNWkmogZ-6" value="2. ScanQRCode()" style="html=1;verticalAlign=bottom;endArrow=block;elbow=vertical;rounded=0;exitX=0.207;exitY=0.36;exitDx=0;exitDy=0;exitPerimeter=0;fontStyle=1" edge="1" parent="1" target="aM9ryv3xv72pqoxQDRHE-2">
          <mxGeometry relative="1" as="geometry">
            <mxPoint x="-173.60000000000014" y="214.351" as="sourcePoint" />
            <mxPoint x="75" y="214.351" as="targetPoint" />
          </mxGeometry>
        </mxCell>
        <mxCell id="i8TA8cNmWOimtNWkmogZ-7" value="3. GetQRCode()" style="html=1;verticalAlign=bottom;endArrow=block;elbow=vertical;rounded=0;fontStyle=1;exitX=0.5;exitY=0.421;exitDx=0;exitDy=0;exitPerimeter=0;" edge="1" parent="1">
          <mxGeometry relative="1" as="geometry">
            <mxPoint x="80" y="214.99" as="sourcePoint" />
            <mxPoint x="270" y="215" as="targetPoint" />
          </mxGeometry>
        </mxCell>
        <mxCell id="aM9ryv3xv72pqoxQDRHE-1" value="&lt;b&gt;:AttendanceInterface&lt;/b&gt;" style="shape=umlLifeline;perimeter=lifelinePerimeter;whiteSpace=wrap;html=1;container=0;dropTarget=0;collapsible=0;recursiveResize=0;outlineConnect=0;portConstraint=eastwest;newEdgeStyle={&quot;edgeStyle&quot;:&quot;elbowEdgeStyle&quot;,&quot;elbow&quot;:&quot;vertical&quot;,&quot;curved&quot;:0,&quot;rounded&quot;:0};" vertex="1" parent="1">
          <mxGeometry x="10" y="40" width="130" height="430" as="geometry" />
        </mxCell>
        <mxCell id="aM9ryv3xv72pqoxQDRHE-2" value="" style="html=1;points=[];perimeter=orthogonalPerimeter;outlineConnect=0;targetShapes=umlLifeline;portConstraint=eastwest;newEdgeStyle={&quot;edgeStyle&quot;:&quot;elbowEdgeStyle&quot;,&quot;elbow&quot;:&quot;vertical&quot;,&quot;curved&quot;:0,&quot;rounded&quot;:0};" vertex="1" parent="aM9ryv3xv72pqoxQDRHE-1">
          <mxGeometry x="60" y="70" width="10" height="300" as="geometry" />
        </mxCell>
        <mxCell id="i8TA8cNmWOimtNWkmogZ-9" value="&lt;b&gt;Điểm danh bằng mã QR&lt;/b&gt;" style="shape=umlFrame;whiteSpace=wrap;html=1;pointerEvents=0;recursiveResize=0;container=1;collapsible=0;width=160;" vertex="1" parent="1">
          <mxGeometry x="-400" y="-60" width="1030" height="560" as="geometry" />
        </mxCell>
        <mxCell id="i8TA8cNmWOimtNWkmogZ-10" value="&lt;b&gt;Loop&lt;/b&gt;" style="shape=umlFrame;whiteSpace=wrap;html=1;pointerEvents=0;recursiveResize=0;container=1;collapsible=0;width=160;" vertex="1" parent="i8TA8cNmWOimtNWkmogZ-9">
          <mxGeometry x="40" y="230" width="910" height="270" as="geometry" />
        </mxCell>
        <mxCell id="i8TA8cNmWOimtNWkmogZ-11" value="" style="html=1;points=[];perimeter=orthogonalPerimeter;outlineConnect=0;targetShapes=umlLifeline;portConstraint=eastwest;newEdgeStyle={&quot;edgeStyle&quot;:&quot;elbowEdgeStyle&quot;,&quot;elbow&quot;:&quot;vertical&quot;,&quot;curved&quot;:0,&quot;rounded&quot;:0};" vertex="1" parent="i8TA8cNmWOimtNWkmogZ-10">
          <mxGeometry x="180" y="-40" width="10" height="90" as="geometry" />
        </mxCell>
        <mxCell id="i8TA8cNmWOimtNWkmogZ-19" value="4.UpdateInfo()" style="html=1;verticalAlign=bottom;endArrow=block;elbow=vertical;rounded=0;fontStyle=1;exitX=0.5;exitY=0.421;exitDx=0;exitDy=0;exitPerimeter=0;" edge="1" parent="i8TA8cNmWOimtNWkmogZ-10" target="i8TA8cNmWOimtNWkmogZ-3">
          <mxGeometry relative="1" as="geometry">
            <mxPoint x="640" y="100" as="sourcePoint" />
            <mxPoint x="830" y="100.00999999999999" as="targetPoint" />
          </mxGeometry>
        </mxCell>
        <mxCell id="i8TA8cNmWOimtNWkmogZ-12" value="&lt;b&gt;alt&lt;/b&gt;" style="shape=umlFrame;whiteSpace=wrap;html=1;pointerEvents=0;recursiveResize=0;container=1;collapsible=0;width=160;" vertex="1" parent="1">
          <mxGeometry x="-310" y="240" width="840" height="150" as="geometry" />
        </mxCell>
        <mxCell id="i8TA8cNmWOimtNWkmogZ-14" value="" style="line;strokeWidth=1;html=1;perimeter=backbonePerimeter;points=[];outlineConnect=0;dashed=1;" vertex="1" parent="i8TA8cNmWOimtNWkmogZ-12">
          <mxGeometry y="58" width="840" height="10" as="geometry" />
        </mxCell>
        <mxCell id="i8TA8cNmWOimtNWkmogZ-15" value="&lt;b&gt;6. InvalidQR&lt;/b&gt;" style="html=1;verticalAlign=bottom;endArrow=open;dashed=1;endSize=8;edgeStyle=elbowEdgeStyle;elbow=vertical;curved=0;rounded=0;" edge="1" parent="i8TA8cNmWOimtNWkmogZ-12" target="aM9ryv3xv72pqoxQDRHE-2">
          <mxGeometry relative="1" as="geometry">
            <mxPoint x="395" y="90" as="targetPoint" />
            <Array as="points">
              <mxPoint x="500" y="90" />
            </Array>
            <mxPoint x="580" y="90" as="sourcePoint" />
          </mxGeometry>
        </mxCell>
        <mxCell id="i8TA8cNmWOimtNWkmogZ-16" value="&lt;b&gt;7. InvalidPosistion&lt;/b&gt;" style="html=1;verticalAlign=bottom;endArrow=open;dashed=1;endSize=8;edgeStyle=elbowEdgeStyle;elbow=vertical;curved=0;rounded=0;" edge="1" parent="i8TA8cNmWOimtNWkmogZ-12" target="aM9ryv3xv72pqoxQDRHE-2">
          <mxGeometry relative="1" as="geometry">
            <mxPoint x="400" y="130" as="targetPoint" />
            <Array as="points">
              <mxPoint x="505" y="130" />
            </Array>
            <mxPoint x="580" y="130" as="sourcePoint" />
          </mxGeometry>
        </mxCell>
        <mxCell id="i8TA8cNmWOimtNWkmogZ-17" value="" style="line;strokeWidth=1;html=1;perimeter=backbonePerimeter;points=[];outlineConnect=0;dashed=1;" vertex="1" parent="i8TA8cNmWOimtNWkmogZ-12">
          <mxGeometry x="10" y="103" width="830" height="10" as="geometry" />
        </mxCell>
      </root>
    </mxGraphModel>
  </diagram>
</mxfile>
